<svg width="100" height="100" viewBox="0 0 100 100" fill="none" xmlns="http://www.w3.org/2000/svg">
<path d="M77.8886 12.1576L67.8886 6.90984C59.1106 2.3033 54.7216 0 50.0001 0C45.2786 0 40.8896 2.3033 32.1116 6.90984L22.1116 12.1576C13.2429 16.8117 8.02963 19.5475 4.79858 23.2066L50.0001 45.8075L95.2015 23.2066C91.9706 19.5475 86.7576 16.8117 77.8886 12.1576Z" fill="#9B3CFF"/>
<path d="M98.742 29.8217L53.75 52.3174V99.5199C57.3395 98.6259 61.424 96.4824 67.8885 93.0899L77.8885 87.8424C88.647 82.1964 94.026 79.3739 97.013 74.3014C100 69.2289 100 62.9164 100 50.2924V49.7074C100 40.2445 100 34.3279 98.742 29.8217Z" fill="#9B3CFF"/>
<path d="M46.25 99.5198V52.3173L1.2582 29.8215C4.47034e-07 34.3277 0 40.2443 0 49.7073V50.2923C0 62.9163 -2.98023e-07 69.2288 2.987 74.3013C5.97394 79.3738 11.3531 82.1963 22.1114 87.8423L32.1114 93.0898C38.5762 96.4823 42.6605 98.6258 46.25 99.5198Z" fill="#9B3CFF"/>
</svg>
