<svg width="108" height="100" viewBox="0 0 108 100" fill="none" xmlns="http://www.w3.org/2000/svg">
<path d="M97.2 35.7143C98.0952 35.7159 98.9577 36.0484 99.6191 36.6468C100.281 37.2452 100.694 38.0667 100.778 38.9509V89.2857C100.769 92.0447 99.6927 94.695 97.7707 96.689C95.8486 98.683 93.2279 99.8684 90.45 100H18C15.219 99.9917 12.5474 98.9238 10.5375 97.017C8.52748 95.1102 7.33269 92.5103 7.2 89.7545V39.2857C7.20165 38.3976 7.53678 37.542 8.14 36.8858C8.74321 36.2296 9.57124 35.8199 10.4625 35.7366H97.2V35.7143ZM69.3225 50.6027L69.075 50.7812L48.465 72.9464L39.1275 64.0178C38.6538 63.5472 38.0205 63.2683 37.351 63.2353C36.6814 63.2023 36.0234 63.4176 35.505 63.8393L35.28 64.0178L31.5 67.4107C31.2686 67.6051 31.0792 67.8438 30.9431 68.1127C30.8071 68.3815 30.7272 68.6748 30.7083 68.975C30.6893 69.2753 30.7318 69.5762 30.833 69.8597C30.9343 70.1432 31.0923 70.4036 31.2975 70.625L31.5 70.8482L44.685 83.2366C45.7119 84.2398 47.0914 84.808 48.5325 84.8214C49.2501 84.8403 49.9636 84.7089 50.6265 84.4359C51.2895 84.1628 51.887 83.7542 52.38 83.2366L63.405 71.7188L64.2825 70.8036L65.4525 69.5759L76.7025 57.7455C77.089 57.2952 77.3212 56.7347 77.3657 56.145C77.4102 55.5552 77.2646 54.9666 76.95 54.4643L76.7925 54.2634L72.9225 50.8259C72.4584 50.3504 71.832 50.0639 71.1661 50.0227C70.5002 49.9814 69.8427 50.1882 69.3225 50.6027ZM97.2 0C100.063 0.00589782 102.806 1.13662 104.83 3.14466C106.854 5.1527 107.994 7.87449 108 10.7143V21.4286C108 22.3758 107.621 23.2842 106.946 23.954C106.27 24.6237 105.355 25 104.4 25H3.6C2.64522 25 1.72955 24.6237 1.05442 23.954C0.379284 23.2842 0 22.3758 0 21.4286V10.7143C0.00594501 7.87449 1.14571 5.1527 3.16981 3.14466C5.19392 1.13662 7.93749 0.00589782 10.8 0H97.2Z" fill="#9B3CFF"/>
</svg>
