<svg width="90" height="90" viewBox="0 0 90 90" fill="none" xmlns="http://www.w3.org/2000/svg">
<path d="M80.055 64.5092C76.3929 60.8471 71.9012 62.2295 71.6603 59.85C71.4536 57.8089 71.9743 57.4188 74.6197 55.4946L87.399 45.689C90.3706 43.7504 89.8828 40.2895 88.1473 38.6522C88.1473 38.6522 77.0386 28.277 75.4611 26.6995C73.8834 25.1218 71.9976 25.1108 71.3775 26.994C70.7598 28.8771 71.5152 33.3941 68.9109 36.4025C64.8498 41.095 57.3109 41.0606 52.8951 36.6448C48.4794 32.2291 48.4447 24.6903 53.1374 20.629C56.1458 18.0247 60.6627 18.7799 62.5459 18.1624C64.4288 17.5423 64.4178 15.6563 62.8404 14.0788C61.2626 12.5011 50.8876 1.3925 50.8876 1.3925C49.2504 -0.343183 45.7895 -0.830977 43.8508 2.14074L34.0452 14.92C32.1197 17.5667 31.7295 18.0876 29.6898 17.8794C27.3101 17.6384 28.6926 13.1468 25.0306 9.48481C20.7007 5.15489 13.7064 5.12287 9.41466 9.41456C5.1231 13.7061 5.15485 20.7007 9.48477 25.0306C13.1469 28.6928 17.6385 27.3103 17.8794 29.6898C18.0862 31.7309 17.5654 32.121 14.9199 34.0454L2.14056 43.851C-0.831022 45.7895 -0.343091 49.2503 1.39246 50.8876C1.39246 50.8876 12.5012 61.2628 14.0788 62.8404C15.6562 64.4179 17.5423 64.4288 18.1623 62.5459C18.7799 60.6627 18.0246 56.1457 20.6291 53.1373C24.69 48.4448 32.2288 48.4794 36.6446 52.8953C41.0605 57.3111 41.095 64.8498 36.4026 68.9108C33.394 71.5152 28.877 70.7599 26.994 71.3776C25.1109 71.9975 25.1219 73.8835 26.6995 75.4611C28.277 77.0386 38.6522 88.1473 38.6522 88.1473C40.2895 89.8829 43.7504 90.3709 45.6888 87.3992L55.4944 74.6199C57.42 71.9734 57.8101 71.4524 59.8499 71.6604C62.2295 71.9013 60.8471 76.393 64.5091 80.055C68.8391 84.3849 75.8338 84.4168 80.1253 80.1252C84.417 75.8335 84.3849 68.8391 80.055 64.5092Z" fill="#9B3CFF"/>
</svg>
