<svg width="100" height="100" viewBox="0 0 100 100" fill="none" xmlns="http://www.w3.org/2000/svg">
<path fill-rule="evenodd" clip-rule="evenodd" d="M65.978 9.97182H36.9036V3.24553C36.9036 1.45431 35.4493 0 33.6581 0C31.8667 0 30.4125 1.45431 30.4125 3.24553V9.97214C25.0022 10.0023 19.8201 12.1645 15.9923 15.9923C12.5056 19.479 10.4009 24.0893 10.0307 28.9717H3.24553C1.45431 28.9717 0 30.426 0 32.2173C0 34.0085 1.45431 35.4628 3.24553 35.4628H9.97182V64.5373H3.24553C1.45431 64.5373 0 65.9915 0 67.7829C0 69.5741 1.45431 71.0284 3.24553 71.0284H10.0307C10.4009 75.9108 12.5056 80.5211 15.9923 84.0078C19.8201 87.8357 25.0022 89.9979 30.4125 90.0279V96.7545C30.4125 98.5458 31.8667 100 33.6581 100C35.4493 100 36.9036 98.5458 36.9036 96.7545V90.0283H65.978V96.7545C65.978 98.5458 67.4323 100 69.2236 100C71.0148 100 72.4691 98.5458 72.4691 96.7545V89.8088C76.8122 89.1692 80.8661 87.1495 84.0078 84.0078C87.4945 80.5211 89.5991 75.9108 89.9693 71.0284H96.7545C98.5458 71.0284 100 69.5741 100 67.7829C100 65.9915 98.5458 64.5373 96.7545 64.5373H90.0282V35.4628H96.7545C98.5458 35.4628 100 34.0085 100 32.2173C100 30.426 98.5458 28.9717 96.7545 28.9717H89.9693C89.5991 24.0893 87.4945 19.479 84.0078 15.9923C80.8661 12.8506 76.8122 10.8309 72.4691 10.1913V3.24553C72.4691 1.45431 71.0148 0 69.2236 0C67.4323 0 65.978 1.45431 65.978 3.24553V9.97182ZM69.4732 83.5372H30.5269C26.7969 83.5372 23.2196 82.0554 20.5822 79.4179C17.9446 76.7804 16.4629 73.2031 16.4629 69.4732C16.4629 57.7312 16.4629 42.2689 16.4629 30.5269C16.4629 26.7969 17.9446 23.2196 20.5822 20.5822C23.2196 17.9446 26.7969 16.4629 30.5269 16.4629H69.4731C73.2031 16.4629 76.7804 17.9446 79.4179 20.5822C82.0554 23.2196 83.5371 26.7969 83.5371 30.5269V69.4732C83.5371 73.2031 82.0554 76.7804 79.4179 79.4179C76.7804 82.0554 73.2031 83.5372 69.4732 83.5372ZM31.6087 50.0001C31.6087 50.0001 31.6087 53.0976 31.6087 56.4911C31.6088 63.0635 36.9366 68.3913 43.509 68.3913C47.5793 68.3913 52.4209 68.3913 56.4911 68.3913C63.0634 68.3913 68.3913 63.0635 68.3913 56.4911C68.3913 52.4209 68.3913 47.5793 68.3913 43.509C68.3913 36.9366 63.0634 31.6088 56.4911 31.6088C53.0976 31.6088 50.0001 31.6088 50.0001 31.6088C48.2087 31.6088 46.7545 33.063 46.7545 34.8543C46.7545 36.6455 48.2087 38.0998 50.0001 38.0998H56.4909C59.4786 38.0998 61.9002 40.5215 61.9003 43.5088C61.9003 43.5091 61.9003 56.4911 61.9003 56.4911C61.9002 59.4786 59.4786 61.9002 56.4912 61.9003C56.4909 61.9003 43.509 61.9003 43.509 61.9003C40.5215 61.9002 38.0998 59.4786 38.0997 56.4913C38.0997 56.4909 38.0997 50.0001 38.0997 50.0001C38.0997 48.2087 36.6455 46.7545 34.8542 46.7545C33.063 46.7545 31.6087 48.2087 31.6087 50.0001ZM71.6369 24.9283C73.5327 24.9283 75.0717 26.4674 75.0717 28.3632C75.0717 30.2589 73.5327 31.7981 71.6369 31.7981C69.7411 31.7981 68.202 30.2589 68.202 28.3632C68.202 26.4674 69.7411 24.9283 71.6369 24.9283Z" fill="#9B3CFF"/>
<path fill-rule="evenodd" clip-rule="evenodd" d="M90.028 30.5269C90.0281 25.0754 87.8625 19.8471 84.0076 15.9923C80.1528 12.1375 74.9245 9.97186 69.473 9.97186C57.731 9.97186 42.2688 9.97186 30.5267 9.97186C25.0752 9.97186 19.8469 12.1375 15.9922 15.9923C12.1373 19.8471 9.97168 25.0754 9.97168 30.5269C9.97168 42.269 9.97168 57.7312 9.97168 69.4733C9.97168 74.9247 12.1373 80.153 15.9922 84.0078C19.8469 87.8627 25.0752 90.0283 30.5267 90.0283C37.8024 90.0283 45.864 90.0283 51.4847 90.0283C56.9363 90.0283 62.1646 87.8627 66.0194 84.0078C71.1119 78.9153 78.9151 71.1121 84.0076 66.0196C87.8625 62.1647 90.0281 56.9365 90.028 51.4849V30.5269ZM83.537 30.5269V51.4849C83.537 55.215 82.0552 58.7922 79.4178 61.4298C74.3252 66.5223 66.5221 74.3254 61.4296 79.418C58.792 82.0555 55.2148 83.5373 51.4847 83.5373C45.864 83.5373 37.8024 83.5373 30.5267 83.5373C26.7967 83.5373 23.2195 82.0555 20.582 79.418C17.9445 76.7804 16.4627 73.2032 16.4627 69.4733C16.4627 57.7312 16.4627 42.269 16.4627 30.5269C16.4627 26.7969 17.9445 23.2196 20.582 20.5822C23.2195 17.9446 26.7967 16.4629 30.5267 16.4629H69.473C73.203 16.4629 76.7803 17.9446 79.4178 20.5822C82.0552 23.2196 83.537 26.7969 83.537 30.5269ZM31.6085 56.4911C31.6086 63.0635 36.9365 68.3914 43.5088 68.3914C47.5791 68.3914 52.4207 68.3914 56.491 68.3914C63.0632 68.3914 68.3912 63.0635 68.3912 56.4911C68.3912 52.4209 68.3912 47.5793 68.3912 43.509C68.3912 36.9367 63.0632 31.6088 56.491 31.6088H43.5088C36.9365 31.6088 31.6086 36.9367 31.6085 43.509V56.4911ZM38.0996 56.4914V43.509C38.0997 40.5216 40.5214 38.0998 43.5086 38.0998C43.509 38.0998 56.4909 38.0998 56.4909 38.0998C59.4784 38.0998 61.9 40.5216 61.9001 43.5088C61.9001 43.5091 61.9001 56.4911 61.9001 56.4911C61.9 59.4786 59.4784 61.9002 56.4911 61.9003C56.4908 61.9003 43.5088 61.9003 43.5088 61.9003C40.5214 61.9002 38.0997 59.4786 38.0996 56.4914Z" fill="#9B3CFF"/>
</svg>
